<svg width="16" height="13" viewBox="0 0 16 13" fill="none" xmlns="http://www.w3.org/2000/svg">
<path d="M0.282608 6.23345L3.96933 7.51753L5.39632 11.8001C5.48763 12.0744 5.84704 12.1758 6.0856 11.9938L8.14064 10.4304C8.35606 10.2666 8.66288 10.2584 8.88801 10.4109L12.5946 12.9222C12.8498 13.0953 13.2113 12.9648 13.2753 12.677L15.9906 0.488717C16.0604 0.174368 15.7295 -0.0878713 15.4087 0.0278944L0.278288 5.4748C-0.0950996 5.60918 -0.0918463 6.10251 0.282608 6.23345ZM5.16635 6.83398L12.3716 2.69274C12.5011 2.61854 12.6343 2.78193 12.5231 2.87819L6.5767 8.03638C6.36768 8.21794 6.23286 8.46092 6.19467 8.72466L5.99211 10.1255C5.96528 10.3125 5.68373 10.3311 5.62843 10.1501L4.84939 7.59562C4.76016 7.30426 4.89019 6.99305 5.16635 6.83398Z" fill="#A9AFB9"/>
</svg>
