<svg width="10" height="10" viewBox="0 0 10 10" fill="none" xmlns="http://www.w3.org/2000/svg">
<path d="M5 0C2.243 0 0 2.243 0 5C0 7.757 2.243 10 5 10C7.757 10 10 7.757 10 5C10 2.243 7.757 0 5 0ZM5 8.93608C2.82966 8.93608 1.06381 7.17044 1.06381 5C1.06381 2.82956 2.82966 1.06392 5 1.06392C7.17034 1.06392 8.93619 2.82956 8.93619 5C8.93619 7.17044 7.17034 8.93608 5 8.93608Z" fill="#3183FF" fill-opacity="0.8"/>
<path d="M7.60604 4.84584H5.35903V2.14411C5.35903 1.91676 5.17469 1.73242 4.94734 1.73242C4.71998 1.73242 4.53564 1.91676 4.53564 2.14411V5.25753C4.53564 5.48489 4.71998 5.66923 4.94734 5.66923H7.60604C7.8334 5.66923 8.01774 5.48489 8.01774 5.25753C8.01774 5.03018 7.8334 4.84584 7.60604 4.84584Z" fill="#3183FF" fill-opacity="0.8"/>
</svg>
