<svg width="141" height="125" viewBox="0 0 141 125" fill="none" xmlns="http://www.w3.org/2000/svg">
<path d="M133.77 0H89.8081C85.8168 0 82.5776 3.23927 82.5776 7.2305V51.192C82.5776 55.1833 85.8168 58.4225 89.8081 58.4225H110.849C110.574 69.9336 107.899 79.1451 102.837 86.0719C98.8462 91.5382 92.8017 96.0645 84.7178 99.6363C81.0013 101.27 79.3962 105.667 81.1315 109.34L86.3374 120.33C88.0149 123.859 92.1652 125.406 95.7516 123.859C105.325 119.723 113.409 114.488 120.003 108.125C128.043 100.359 133.553 91.596 136.532 81.8204C139.511 72.0447 141 58.7117 141 41.7923V7.2305C141 3.23941 137.761 0 133.77 0Z" fill="#F8F9FA"/>
<path d="M15.334 123.83C24.7915 119.708 32.8318 114.473 39.4694 108.125C47.5821 100.359 53.1206 91.6249 56.0996 81.9216C59.0786 72.2183 60.5679 58.8418 60.5679 41.7923V7.2305C60.5679 3.23926 57.3288 0 53.3374 0H9.37595C5.38471 0 2.14545 3.23926 2.14545 7.2305V51.192C2.14545 55.1833 5.38471 58.4225 9.37595 58.4225H30.4167C30.142 69.9336 27.4667 79.1451 22.4053 86.0719C18.4141 91.5381 12.3694 96.0644 4.28568 99.6363C0.5692 101.27 -1.03597 105.667 0.699349 109.34L5.89085 120.301C7.56847 123.83 11.7477 125.392 15.334 123.83Z" fill="#F8F9FA"/>
</svg>
